<?xml version="1.0" encoding="utf-8"?>
<!-- Generator: Adobe Illustrator 18.1.1, SVG Export Plug-In . SVG Version: 6.00 Build 0)  -->
<svg version="1.1" id="圖層_1" xmlns="http://www.w3.org/2000/svg" xmlns:xlink="http://www.w3.org/1999/xlink" x="0px" y="0px"
	 viewBox="0 0 12 12" enable-background="new 0 0 12 12" xml:space="preserve">
<g>
	<polygon fill="#FFFFFF" points="2.2,11 4.2,7 6.1,3.4 10,11 	"/>
	<path fill="#956134" d="M6.1,5.6l1,1.9L8.4,10H6.1H3.9l1.3-2.5L6.1,5.6 M6.1,2C5.9,2,5.6,2.1,5.5,2.4L3.4,6.6l-2.1,4.2
		C0.9,11.3,1.3,12,1.9,12h4.3h4.3c0.6,0,0.9-0.7,0.6-1.3L8.9,6.6L6.8,2.4C6.6,2.1,6.4,2,6.1,2L6.1,2z"/>
</g>
</svg>
