<?xml version="1.0" encoding="utf-8"?>
<!-- Generator: Adobe Illustrator 18.1.1, SVG Export Plug-In . SVG Version: 6.00 Build 0)  -->
<svg version="1.1" id="圖層_1" xmlns="http://www.w3.org/2000/svg" xmlns:xlink="http://www.w3.org/1999/xlink" x="0px" y="0px"
	 viewBox="0 0 12 12" enable-background="new 0 0 12 12" xml:space="preserve">
<g>
	<path fill="#FFFFFF" d="M6,10c-2.2,0-4-1.8-4-4s1.8-4,4-4s4,1.8,4,4S8.2,10,6,10z"/>
	<path fill="#00913A" d="M6,3c1.7,0,3,1.3,3,3S7.7,9,6,9S3,7.7,3,6S4.3,3,6,3 M6,1C3.2,1,1,3.2,1,6c0,2.8,2.2,5,5,5c2.8,0,5-2.2,5-5
		C11,3.2,8.8,1,6,1L6,1z"/>
</g>
</svg>
