<?xml version="1.0" encoding="utf-8"?>
<!-- Generator: Adobe Illustrator 18.1.1, SVG Export Plug-In . SVG Version: 6.00 Build 0)  -->
<svg version="1.1" id="圖層_1" xmlns="http://www.w3.org/2000/svg" xmlns:xlink="http://www.w3.org/1999/xlink" x="0px" y="0px"
	 viewBox="0 0 12 12" enable-background="new 0 0 12 12" xml:space="preserve">
<g>
	<path fill="#FFFFFF" d="M6,10.8c-1.7,0-3-1.4-3-3c0-0.3,0-0.6,0.1-0.9c0.1-0.3,0.2-0.5,0.3-0.7L6,2.9l2.6,3.3
		c0.1,0.2,0.2,0.5,0.3,0.7C9,7.2,9,7.5,9,7.8C9,9.5,7.6,10.8,6,10.8z"/>
	<path fill="#6A53B0" d="M6,4.8l0.4,0.5l0.8,1.1l0.4,0.6C7.7,7,7.7,7.1,7.8,7.3c0.1,0.2,0.1,0.4,0.1,0.5c0,1-0.8,1.9-1.9,1.9
		c-1,0-1.9-0.8-1.9-1.9c0-0.2,0-0.4,0.1-0.5c0-0.1,0.1-0.3,0.2-0.4l0.4-0.6l0.8-1.1L6,4.8 M6,1L3.8,3.8L2.9,4.9L2.4,5.6
		C2.2,5.9,2,6.2,1.9,6.6C1.8,7,1.8,7.4,1.8,7.8C1.8,10.1,3.6,12,6,12s4.2-1.9,4.2-4.2c0-0.4-0.1-0.8-0.2-1.2
		C9.9,6.2,9.7,5.9,9.5,5.6L9,4.9L8.2,3.8L6,1L6,1z"/>
</g>
</svg>
